<?xml version="1.0" encoding="UTF-8" standalone="no"?><!-- Generator: Gravit.io --><svg xmlns="http://www.w3.org/2000/svg" xmlns:xlink="http://www.w3.org/1999/xlink" style="isolation:isolate" viewBox="0 0 160 45" width="160pt" height="45pt"><defs><clipPath id="_clipPath_PeISiGmAu9shAH8ZCmoxpwtxOw2JBhlV"><rect width="160" height="45"/></clipPath></defs><g clip-path="url(#_clipPath_PeISiGmAu9shAH8ZCmoxpwtxOw2JBhlV)"><path d="M 18 2 L 142 2 C 150.831 2 158 9.169 158 18 L 158 26 C 158 34.831 150.831 42 142 42 L 18 42 C 9.169 42 2 34.831 2 26 L 2 18 C 2 9.169 9.169 2 18 2 Z" style="stroke:none;fill:#F9F9F9;stroke-miterlimit:10;"/><linearGradient id="_lgradient_0" x1="0.49999999999999956" y1="0.9999999999999994" x2="0.5604225715021901" y2="-0.2904052734375001" gradientTransform="matrix(77.62,0,0,14.4,55.5,15.182)" gradientUnits="userSpaceOnUse"><stop offset="1.25%" stop-opacity="1" style="stop-color:rgb(74,134,232)"/><stop offset="97.5%" stop-opacity="1" style="stop-color:rgb(0,0,255)"/></linearGradient><path d=" M 56.72 15.382 L 61.5 15.382 L 61.5 15.382 Q 62.94 15.382 64.06 15.922 L 64.06 15.922 L 64.06 15.922 Q 65.18 16.462 65.95 17.432 L 65.95 17.432 L 65.95 17.432 Q 66.72 18.402 67.11 19.672 L 67.11 19.672 L 67.11 19.672 Q 67.5 20.942 67.5 22.382 L 67.5 22.382 L 67.5 22.382 Q 67.5 24.322 66.8 25.912 L 66.8 25.912 L 66.8 25.912 Q 66.1 27.502 64.77 28.442 L 64.77 28.442 L 64.77 28.442 Q 63.44 29.382 61.5 29.382 L 61.5 29.382 L 56.72 29.382 L 56.72 29.382 Q 56.2 29.382 55.85 29.032 L 55.85 29.032 L 55.85 29.032 Q 55.5 28.682 55.5 28.162 L 55.5 28.162 L 55.5 16.602 L 55.5 16.602 Q 55.5 16.082 55.85 15.732 L 55.85 15.732 L 55.85 15.732 Q 56.2 15.382 56.72 15.382 L 56.72 15.382 L 56.72 15.382 Z  M 57.88 27.082 L 61.3 27.082 L 61.3 27.082 Q 62.56 27.082 63.36 26.432 L 63.36 26.432 L 63.36 26.432 Q 64.16 25.782 64.53 24.712 L 64.53 24.712 L 64.53 24.712 Q 64.9 23.642 64.9 22.382 L 64.9 22.382 L 64.9 22.382 Q 64.9 21.442 64.69 20.592 L 64.69 20.592 L 64.69 20.592 Q 64.48 19.742 64.04 19.092 L 64.04 19.092 L 64.04 19.092 Q 63.6 18.442 62.92 18.062 L 62.92 18.062 L 62.92 18.062 Q 62.24 17.682 61.3 17.682 L 61.3 17.682 L 57.8 17.682 L 58 17.502 L 58 27.302 L 57.88 27.082 L 57.88 27.082 Z  M 82.68 22.382 L 82.68 22.382 L 82.68 22.382 Q 82.68 23.882 82.18 25.182 L 82.18 25.182 L 82.18 25.182 Q 81.68 26.482 80.77 27.472 L 80.77 27.472 L 80.77 27.472 Q 79.86 28.462 78.61 29.022 L 78.61 29.022 L 78.61 29.022 Q 77.36 29.582 75.88 29.582 L 75.88 29.582 L 75.88 29.582 Q 74.4 29.582 73.16 29.022 L 73.16 29.022 L 73.16 29.022 Q 71.92 28.462 71.01 27.472 L 71.01 27.472 L 71.01 27.472 Q 70.1 26.482 69.6 25.182 L 69.6 25.182 L 69.6 25.182 Q 69.1 23.882 69.1 22.382 L 69.1 22.382 L 69.1 22.382 Q 69.1 20.882 69.6 19.582 L 69.6 19.582 L 69.6 19.582 Q 70.1 18.282 71.01 17.292 L 71.01 17.292 L 71.01 17.292 Q 71.92 16.302 73.16 15.742 L 73.16 15.742 L 73.16 15.742 Q 74.4 15.182 75.88 15.182 L 75.88 15.182 L 75.88 15.182 Q 77.36 15.182 78.61 15.742 L 78.61 15.742 L 78.61 15.742 Q 79.86 16.302 80.77 17.292 L 80.77 17.292 L 80.77 17.292 Q 81.68 18.282 82.18 19.582 L 82.18 19.582 L 82.18 19.582 Q 82.68 20.882 82.68 22.382 Z  M 80.08 22.382 L 80.08 22.382 L 80.08 22.382 Q 80.08 21.042 79.54 19.952 L 79.54 19.952 L 79.54 19.952 Q 79 18.862 78.06 18.222 L 78.06 18.222 L 78.06 18.222 Q 77.12 17.582 75.88 17.582 L 75.88 17.582 L 75.88 17.582 Q 74.64 17.582 73.7 18.222 L 73.7 18.222 L 73.7 18.222 Q 72.76 18.862 72.23 19.942 L 72.23 19.942 L 72.23 19.942 Q 71.7 21.022 71.7 22.382 L 71.7 22.382 L 71.7 22.382 Q 71.7 23.722 72.23 24.812 L 72.23 24.812 L 72.23 24.812 Q 72.76 25.902 73.7 26.542 L 73.7 26.542 L 73.7 26.542 Q 74.64 27.182 75.88 27.182 L 75.88 27.182 L 75.88 27.182 Q 77.12 27.182 78.06 26.542 L 78.06 26.542 L 78.06 26.542 Q 79 25.902 79.54 24.812 L 79.54 24.812 L 79.54 24.812 Q 80.08 23.722 80.08 22.382 Z  M 95.6 15.382 L 95.6 15.382 L 95.6 15.382 Q 96.08 15.382 96.38 15.702 L 96.38 15.702 L 96.38 15.702 Q 96.68 16.022 96.68 16.502 L 96.68 16.502 L 96.68 28.162 L 96.68 28.162 Q 96.68 28.682 96.33 29.032 L 96.33 29.032 L 96.33 29.032 Q 95.98 29.382 95.46 29.382 L 95.46 29.382 L 95.46 29.382 Q 95.2 29.382 94.93 29.292 L 94.93 29.292 L 94.93 29.292 Q 94.66 29.202 94.52 29.042 L 94.52 29.042 L 86.66 19.062 L 87.18 18.742 L 87.18 28.262 L 87.18 28.262 Q 87.18 28.742 86.87 29.062 L 86.87 29.062 L 86.87 29.062 Q 86.56 29.382 86.06 29.382 L 86.06 29.382 L 86.06 29.382 Q 85.58 29.382 85.28 29.062 L 85.28 29.062 L 85.28 29.062 Q 84.98 28.742 84.98 28.262 L 84.98 28.262 L 84.98 16.602 L 84.98 16.602 Q 84.98 16.082 85.33 15.732 L 85.33 15.732 L 85.33 15.732 Q 85.68 15.382 86.2 15.382 L 86.2 15.382 L 86.2 15.382 Q 86.48 15.382 86.78 15.492 L 86.78 15.492 L 86.78 15.492 Q 87.08 15.602 87.22 15.822 L 87.22 15.822 L 94.84 25.542 L 94.5 25.782 L 94.5 16.502 L 94.5 16.502 Q 94.5 16.022 94.8 15.702 L 94.8 15.702 L 94.8 15.702 Q 95.1 15.382 95.6 15.382 Z  M 104.24 18.642 L 104.82 18.522 L 100.5 28.682 L 100.5 28.682 Q 100.36 29.062 100.07 29.272 L 100.07 29.272 L 100.07 29.272 Q 99.78 29.482 99.44 29.482 L 99.44 29.482 L 99.44 29.482 Q 98.9 29.482 98.64 29.182 L 98.64 29.182 L 98.64 29.182 Q 98.38 28.882 98.38 28.442 L 98.38 28.442 L 98.38 28.442 Q 98.38 28.262 98.44 28.062 L 98.44 28.062 L 103.42 16.102 L 103.42 16.102 Q 103.58 15.702 103.91 15.482 L 103.91 15.482 L 103.91 15.482 Q 104.24 15.262 104.62 15.302 L 104.62 15.302 L 104.62 15.302 Q 104.98 15.302 105.29 15.512 L 105.29 15.512 L 105.29 15.512 Q 105.6 15.722 105.74 16.102 L 105.74 16.102 L 110.66 27.822 L 110.66 27.822 Q 110.76 28.082 110.76 28.302 L 110.76 28.302 L 110.76 28.302 Q 110.76 28.842 110.41 29.162 L 110.41 29.162 L 110.41 29.162 Q 110.06 29.482 109.64 29.482 L 109.64 29.482 L 109.64 29.482 Q 109.28 29.482 108.99 29.262 L 108.99 29.262 L 108.99 29.262 Q 108.7 29.042 108.54 28.662 L 108.54 28.662 L 104.24 18.642 L 104.24 18.642 Z  M 108 26.242 L 101.12 26.242 L 102.22 23.942 L 107.62 23.942 L 108 26.242 L 108 26.242 Z  M 116.2 29.382 L 116.2 29.382 L 116.2 29.382 Q 115.64 29.382 115.28 29.032 L 115.28 29.032 L 115.28 29.032 Q 114.92 28.682 114.92 28.162 L 114.92 28.162 L 114.92 16.562 L 117.52 16.562 L 117.52 28.162 L 117.52 28.162 Q 117.52 28.682 117.15 29.032 L 117.15 29.032 L 117.15 29.032 Q 116.78 29.382 116.2 29.382 Z  M 120.66 17.682 L 111.78 17.682 L 111.78 17.682 Q 111.26 17.682 110.91 17.362 L 110.91 17.362 L 110.91 17.362 Q 110.56 17.042 110.56 16.522 L 110.56 16.522 L 110.56 16.522 Q 110.56 16.002 110.91 15.692 L 110.91 15.692 L 110.91 15.692 Q 111.26 15.382 111.78 15.382 L 111.78 15.382 L 120.66 15.382 L 120.66 15.382 Q 121.18 15.382 121.53 15.702 L 121.53 15.702 L 121.53 15.702 Q 121.88 16.022 121.88 16.542 L 121.88 16.542 L 121.88 16.542 Q 121.88 17.062 121.53 17.372 L 121.53 17.372 L 121.53 17.372 Q 121.18 17.682 120.66 17.682 L 120.66 17.682 L 120.66 17.682 Z  M 125.2 15.382 L 125.2 15.382 L 131.9 15.382 L 131.9 15.382 Q 132.42 15.382 132.77 15.712 L 132.77 15.712 L 132.77 15.712 Q 133.12 16.042 133.12 16.562 L 133.12 16.562 L 133.12 16.562 Q 133.12 17.062 132.77 17.372 L 132.77 17.372 L 132.77 17.372 Q 132.42 17.682 131.9 17.682 L 131.9 17.682 L 126.3 17.682 L 126.48 17.342 L 126.48 21.242 L 126.32 21.082 L 131 21.082 L 131 21.082 Q 131.52 21.082 131.87 21.412 L 131.87 21.412 L 131.87 21.412 Q 132.22 21.742 132.22 22.262 L 132.22 22.262 L 132.22 22.262 Q 132.22 22.762 131.87 23.072 L 131.87 23.072 L 131.87 23.072 Q 131.52 23.382 131 23.382 L 131 23.382 L 126.38 23.382 L 126.48 23.222 L 126.48 27.262 L 126.32 27.082 L 131.9 27.082 L 131.9 27.082 Q 132.42 27.082 132.77 27.432 L 132.77 27.432 L 132.77 27.432 Q 133.12 27.782 133.12 28.242 L 133.12 28.242 L 133.12 28.242 Q 133.12 28.742 132.77 29.062 L 132.77 29.062 L 132.77 29.062 Q 132.42 29.382 131.9 29.382 L 131.9 29.382 L 125.2 29.382 L 125.2 29.382 Q 124.68 29.382 124.33 29.032 L 124.33 29.032 L 124.33 29.032 Q 123.98 28.682 123.98 28.162 L 123.98 28.162 L 123.98 16.602 L 123.98 16.602 Q 123.98 16.082 124.33 15.732 L 124.33 15.732 L 124.33 15.732 Q 124.68 15.382 125.2 15.382 Z " fill="url(#_lgradient_0)"/><linearGradient id="_lgradient_1" x1="0.2727272727272727" y1="0.7857142857142857" x2="0.7727272727272723" y2="-0.149350649350649" gradientTransform="matrix(22,0,0,19.25,20,12.875)" gradientUnits="userSpaceOnUse"><stop offset="0%" stop-opacity="1" style="stop-color:rgb(74,134,232)"/><stop offset="100%" stop-opacity="1" style="stop-color:rgb(0,0,255)"/></linearGradient><path d=" M 26.125 12.875 C 24.398 12.875 22.828 13.473 21.719 14.563 C 20.609 15.652 20 17.21 20 19 C 20 22.027 21.855 24.285 23.969 26.188 C 26.082 28.09 28.547 29.773 30.219 31.75 C 30.402 31.98 30.676 32.117 30.969 32.125 L 31.031 32.125 C 31.324 32.117 31.599 31.98 31.781 31.75 C 33.453 29.773 35.918 28.09 38.031 26.187 C 40.145 24.286 42 22.027 42 19 C 42 17.21 41.36 15.652 40.25 14.562 C 39.14 13.472 37.602 12.875 35.875 12.875 C 34.165 12.875 32.762 13.809 31.781 14.656 C 31.301 15.07 31.277 15.184 31 15.5 C 30.727 15.184 30.7 15.07 30.219 14.656 C 29.242 13.809 27.836 12.875 26.125 12.875 Z  M 26.125 14.875 C 27.066 14.875 28.117 15.504 28.906 16.188 C 29.376 16.593 29.805 17.043 30.187 17.531 C 30.375 17.793 30.68 17.949 31 17.949 C 31.32 17.949 31.625 17.793 31.813 17.531 C 31.813 17.531 32.301 16.871 33.093 16.187 C 33.887 15.504 34.93 14.875 35.875 14.875 C 37.16 14.875 38.172 15.313 38.875 16 C 39.578 16.688 40 17.66 40 19 C 40 21.215 38.66 22.91 36.687 24.688 C 34.941 26.262 32.809 27.875 31 29.781 C 29.187 27.867 27.062 26.261 25.312 24.688 C 23.34 22.91 22 21.215 22 19 C 22 17.66 22.422 16.687 23.125 16 C 23.828 15.312 24.835 14.875 26.125 14.875 Z " fill="url(#_lgradient_1)"/></g></svg>